<svg xmlns="http://www.w3.org/2000/svg" viewBox="0 0 1562.83 697.63"><defs><style>.cls-1{fill:#eb7d47;}.cls-2,.cls-3{isolation:isolate;}.cls-3{font-size:250px;fill:#686868;font-family:Poppins-ExtraBold, Poppins;font-weight:800;letter-spacing:0.09em;}</style></defs><g id="Layer_2" data-name="Layer 2"><g id="Capa_1" data-name="Capa 1"><g id="Grupo_10721" data-name="Grupo 10721"><g id="Grupo_10718" data-name="Grupo 10718"><path id="Intersecci贸n_1" data-name="Intersecci贸n 1" class="cls-1" d="M229.85,697c-43-4.61-162-4.12-229.85-136.72,74.46,61,110,39.29,139.33,28.64C181,559.11,186,563.17,229.85,568.5c32.75,8.61,96.47,19.51,131.57,17,2.84,2.84,3.8,5.46,3.81,7.74,0,4.13-3.09,7.12-3.81,8.24-6.49,7.11-15.52,10.61-24.32,14.14-24,9.62-74.18,14.91-103.19,8.89C251.34,640,269.07,642.3,287,641.81c92.23-17,131.3-34.68,136.63-37.34,17.67-8.54,21.24-13.31,29.6-8.54,0,1.47.42,2.9.42,4.54,0,2.35-.85,5.14-5.08,9.1-43.8,33.19-109.43,67.75-166.07,82.84-13.45,3.58-23.41,5.22-36.82,5.22C240.94,697.63,235.77,697.43,229.85,697Z"/><g id="Grupo_10661" data-name="Grupo 10661"><path id="Trazado_9977" data-name="Trazado 9977" class="cls-1" d="M318,561.12c-10.78-3-19.52-4.14-27.29-8-35.31-17.32-69.92-16.31-105.48.18-28.7,13.31-54.35,4.77-72.61-20.44C101.91,518.13,97,500.64,96.06,481.58c-.69-14.13,5.63-24.39,15.38-31.15,26.7-18.49,46.16-44.44,62.52-75,7.79-14.56,19.21-27.41,31-37.87,20.87-18.45,47.06-19,67,.37,14.66,14.21,27.07,32.35,38,50.74,12,20.17,25.15,38.19,42.69,51.94,13.37,10.48,29.43,18.84,27.51,43.15-2.14,27.16-11.07,50.13-31.44,64.26C339.17,554.7,327.44,557.25,318,561.12Z"/><path id="Trazado_9978" data-name="Trazado 9978" class="cls-1" d="M152.78,162.82c20.82-19.94,43.57-17,57.05,7.23,18.91,34.08,22.5,70.34,10.65,107-7.46,23.06-26,34-51.87,33.86-24.71-.15-40.82-8.75-50.09-34.36C109.25,221,132,182.77,152.78,162.82Z"/><path id="Trazado_9979" data-name="Trazado 9979" class="cls-1" d="M360.43,270.38c-7.09,26.48-26.27,40.54-54.3,40.48-26.64-.07-46.42-14.55-52.55-40.91-7.47-32.1,2.75-83.41,17.3-106.25,12.35-15.47,28.51-18.16,45.39-6.5,25,17.25,38.88,45.43,44.7,68.45C364.34,239.4,362.53,262.54,360.43,270.38Z"/><path id="Trazado_9980" data-name="Trazado 9980" class="cls-1" d="M129,367.19c-3.63,26.18-21.07,58-54.91,55.78-16.15-1.07-26.85-9.61-35.18-20.83C16.8,372.4,20.22,317.07,45.44,289.42c13.81-15.15,30.72-16.21,46.14-1.59C117,311.93,132.6,341,129,367.19Z"/><path id="Trazado_9981" data-name="Trazado 9981" class="cls-1" d="M456.26,353.16c0,14.93-9.82,32.42-17.85,46.86-11.06,19.91-34,25.82-54,22.22s-35.9-20-36.6-42.12c-1-32,9.83-61.09,31.26-86.27,20.5-24.08,49.2-22.32,63.41,5.3C450.94,315.6,456.26,338.24,456.26,353.16Z"/></g><path id="Intersecci贸n_2" data-name="Intersecci贸n 2" class="cls-1" d="M223.81.6c43,4.61,162,4.12,229.85,136.72-74.46-61-110-39.29-139.33-28.64-41.68,29.84-46.68,25.78-90.52,20.45-32.75-8.6-96.47-19.5-131.57-17-2.84-2.84-3.8-5.46-3.81-7.74,0-4.12,3.09-7.12,3.81-8.24,6.49-7.11,15.53-10.61,24.32-14.14,24-9.61,74.18-14.9,103.19-8.89-17.42-15.56-35.16-17.82-53.1-17.33C74.43,72.87,35.35,90.51,30,93.17,12.36,101.7,8.78,106.48.42,101.7c0-1.47-.42-2.89-.42-4.53C0,94.81.86,92,5.08,88.06,48.88,54.88,114.51,20.32,171.16,5.23,184.6,1.64,194.56,0,208,0,212.72,0,217.9.2,223.81.6Z"/></g><g id="FEEDIT" class="cls-2"><text class="cls-3" transform="translate(603.83 463.16)">FEEDIT</text></g></g></g></g></svg>